<?xml version="1.0" standalone="no"?>
<!DOCTYPE svg PUBLIC "-//W3C//DTD SVG 20010904//EN"
 "http://www.w3.org/TR/2001/REC-SVG-20010904/DTD/svg10.dtd">
<svg version="1.0" xmlns="http://www.w3.org/2000/svg"
 width="365.000000pt" height="365.000000pt" viewBox="0 0 365.000000 365.000000"
 preserveAspectRatio="xMidYMid meet">
<metadata>
Created by potrace 1.14, written by Peter Selinger 2001-2017
</metadata>
<g transform="translate(0.000000,365.000000) scale(0.100000,-0.100000)"
fill="#000000" stroke="none">
<path d="M0 2825 l0 -595 42 -21 c102 -52 241 -19 613 144 94 40 202 86 240
101 39 15 84 33 100 40 17 7 45 17 63 20 l32 8 0 -356 c0 -278 -3 -356 -12
-357 -7 0 -26 -2 -42 -4 -339 -44 -735 -179 -946 -323 l-85 -58 -3 -597 -2
-597 1825 0 1825 0 0 595 0 594 -31 17 c-41 21 -64 25 -129 25 -53 -1 -175
-29 -235 -55 -16 -7 -50 -21 -75 -31 -25 -10 -59 -24 -75 -31 -88 -38 -125
-54 -175 -77 -30 -13 -109 -46 -175 -71 -66 -26 -130 -51 -143 -56 -54 -23
-52 -39 -52 345 l0 355 23 1 c12 0 29 2 37 4 25 5 93 16 130 21 67 9 240 54
358 93 203 68 378 152 500 240 l42 31 0 595 0 595 -1825 0 -1825 0 0 -595z
m1625 -1031 l25 -43 -52 18 -53 18 -3 79 -2 79 30 -54 c17 -30 42 -74 55 -97z
m475 72 c16 -3 24 -56 18 -124 l-3 -37 -29 55 c-16 30 -37 67 -47 82 -28 39
-25 48 14 37 17 -6 39 -12 47 -13z"/>
</g>
</svg>
